<svg width="468" height="472" viewBox="0 0 468 472" fill="none" xmlns="http://www.w3.org/2000/svg">
<g clip-path="url(#clip0)">
<path d="M45.0056 397.619L40.8839 381.273C33.5759 378.159 26.099 375.461 18.4888 373.193L17.9686 380.79L15.8587 372.421C6.42076 369.708 3.8147e-06 368.514 3.8147e-06 368.514C3.8147e-06 368.514 8.67076 401.677 26.863 427.029L48.0586 430.773L31.5924 433.161C33.8808 435.93 36.34 438.551 38.9556 441.009C65.4171 465.707 94.8908 477.039 104.786 466.319C114.682 455.599 101.252 426.887 74.7904 402.192C66.5871 394.535 56.2821 388.391 45.9664 383.554L45.0056 397.619Z" fill="#F2F2F2"/>
<path d="M84.2038 379.864L89.0783 363.729C84.4236 357.265 79.4101 351.069 74.0615 345.173L69.711 351.405L72.2067 343.144C65.5208 335.919 60.6381 331.56 60.6381 331.56C60.6381 331.56 51.0155 364.456 53.5539 395.614L69.7739 409.836L54.448 403.321C54.9842 406.881 55.7426 410.403 56.7187 413.868C66.675 448.764 86.0806 473.784 100.062 469.751C114.043 465.717 117.307 434.159 107.35 399.262C104.264 388.444 98.6004 377.828 92.2563 368.326L84.2038 379.864Z" fill="#F2F2F2"/>
<path d="M326.568 111.817H323.997V40.9928C323.997 35.6095 322.942 30.279 320.894 25.3055C318.845 20.3321 315.842 15.813 312.056 12.0065C308.271 8.19998 303.777 5.18047 298.831 3.12039C293.885 1.06031 288.583 0 283.23 0H134C123.188 0 112.819 4.31887 105.174 12.0065C97.5284 19.6942 93.2333 30.1208 93.2333 40.9928V429.547C93.2333 434.93 94.2878 440.261 96.3365 445.234C98.3852 450.208 101.388 454.727 105.174 458.533C108.959 462.34 113.453 465.359 118.399 467.42C123.346 469.48 128.647 470.54 134 470.54H283.23C294.042 470.54 304.411 466.221 312.056 458.533C319.701 450.846 323.996 440.419 323.996 429.547V162.231H326.567L326.568 111.817Z" fill="#E6E6E6"/>
<path d="M284.875 10.6609H265.397C266.293 12.8694 266.635 15.2656 266.393 17.6383C266.151 20.0109 265.332 22.2873 264.009 24.2669C262.685 26.2464 260.898 27.8684 258.805 28.9898C256.711 30.1113 254.376 30.6978 252.004 30.6977H166.512C164.14 30.6976 161.805 30.1109 159.711 28.9894C157.618 27.8679 155.831 26.2459 154.508 24.2664C153.185 22.2868 152.366 20.0105 152.124 17.6379C151.882 15.2654 152.224 12.8693 153.12 10.6609H134.926C126.852 10.6609 119.108 13.8862 113.399 19.6273C107.69 25.3683 104.482 33.1549 104.482 41.274V429.264C104.482 437.383 107.69 445.17 113.399 450.911C119.108 456.652 126.852 459.877 134.926 459.877H284.875C292.949 459.877 300.693 456.652 306.402 450.911C312.112 445.17 315.319 437.383 315.319 429.264V41.2733C315.319 33.1543 312.111 25.368 306.402 19.627C300.693 13.8861 292.949 10.6609 284.875 10.6609Z" fill="white"/>
<path d="M190.793 165.216C190.793 162.504 191.503 159.84 192.852 157.492C194.201 155.143 196.141 153.194 198.478 151.839C196.142 150.483 193.493 149.768 190.796 149.768C188.099 149.768 185.45 150.481 183.114 151.837C180.779 153.193 178.839 155.143 177.491 157.491C176.142 159.84 175.432 162.504 175.432 165.216C175.432 167.927 176.142 170.591 177.491 172.94C178.839 175.288 180.779 177.238 183.114 178.594C185.45 179.95 188.099 180.663 190.796 180.663C193.493 180.663 196.142 179.948 198.478 178.592C196.141 177.238 194.201 175.288 192.852 172.94C191.503 170.592 190.793 167.928 190.793 165.216Z" fill="#CCCCCC"/>
<path d="M210.106 165.216C210.105 162.504 210.815 159.84 212.164 157.492C213.513 155.143 215.454 153.194 217.79 151.839C215.455 150.483 212.806 149.768 210.109 149.768C207.412 149.768 204.762 150.481 202.427 151.837C200.091 153.193 198.152 155.143 196.803 157.491C195.455 159.84 194.745 162.504 194.745 165.216C194.745 167.927 195.455 170.591 196.803 172.94C198.152 175.288 200.091 177.238 202.427 178.594C204.762 179.95 207.412 180.663 210.109 180.663C212.806 180.663 215.455 179.948 217.79 178.592C215.454 177.238 213.513 175.288 212.164 172.94C210.815 170.592 210.105 167.928 210.106 165.216Z" fill="#CCCCCC"/>
<path d="M228.98 180.663C237.464 180.663 244.342 173.747 244.342 165.216C244.342 156.684 237.464 149.768 228.98 149.768C220.495 149.768 213.617 156.684 213.617 165.216C213.617 173.747 220.495 180.663 228.98 180.663Z" fill="#3AD000"/>
<path d="M254.654 213.464H165.119C164.267 213.463 163.449 213.122 162.847 212.516C162.244 211.91 161.905 211.088 161.904 210.231V120.2C161.905 119.343 162.244 118.522 162.847 117.916C163.449 117.309 164.267 116.969 165.119 116.967H254.654C255.506 116.969 256.324 117.309 256.926 117.916C257.529 118.522 257.868 119.343 257.869 120.2V210.231C257.868 211.088 257.529 211.91 256.926 212.516C256.324 213.122 255.506 213.463 254.654 213.464ZM165.119 118.261C164.608 118.262 164.117 118.466 163.756 118.83C163.394 119.194 163.191 119.687 163.19 120.201V210.232C163.191 210.746 163.394 211.239 163.756 211.603C164.117 211.966 164.608 212.171 165.119 212.172H254.654C255.165 212.171 255.656 211.966 256.017 211.603C256.379 211.239 256.582 210.746 256.583 210.232V120.201C256.582 119.687 256.379 119.194 256.017 118.83C255.656 118.466 255.165 118.262 254.654 118.261H165.119Z" fill="#CCCCCC"/>
<path d="M274.646 282.477H137.326V283.77H274.646V282.477Z" fill="#CCCCCC"/>
<path d="M141.663 274.403C144.058 274.403 145.999 272.45 145.999 270.042C145.999 267.634 144.058 265.681 141.663 265.681C139.268 265.681 137.326 267.634 137.326 270.042C137.326 272.45 139.268 274.403 141.663 274.403Z" fill="#3AD000"/>
<path d="M274.646 326.081H137.326V327.374H274.646V326.081Z" fill="#CCCCCC"/>
<path d="M141.663 318.007C144.058 318.007 145.999 316.055 145.999 313.647C145.999 311.238 144.058 309.286 141.663 309.286C139.268 309.286 137.326 311.238 137.326 313.647C137.326 316.055 139.268 318.007 141.663 318.007Z" fill="#3AD000"/>
<path d="M272.133 375.735H228.736C227.986 375.735 227.268 375.435 226.738 374.902C226.208 374.369 225.909 373.646 225.909 372.892V357.598C225.909 356.844 226.208 356.121 226.738 355.588C227.268 355.055 227.986 354.756 228.736 354.755H272.133C272.882 354.756 273.601 355.055 274.131 355.588C274.661 356.121 274.959 356.844 274.96 357.598V372.892C274.959 373.646 274.661 374.369 274.131 374.902C273.601 375.435 272.882 375.735 272.133 375.735Z" fill="#3AD000"/>
<path d="M155.809 274.403C158.204 274.403 160.145 272.45 160.145 270.042C160.145 267.634 158.204 265.681 155.809 265.681C153.414 265.681 151.472 267.634 151.472 270.042C151.472 272.45 153.414 274.403 155.809 274.403Z" fill="#3AD000"/>
<path d="M169.954 274.403C172.35 274.403 174.291 272.45 174.291 270.042C174.291 267.634 172.35 265.681 169.954 265.681C167.559 265.681 165.618 267.634 165.618 270.042C165.618 272.45 167.559 274.403 169.954 274.403Z" fill="#3AD000"/>
<path d="M155.809 318.007C158.204 318.007 160.145 316.055 160.145 313.647C160.145 311.238 158.204 309.286 155.809 309.286C153.414 309.286 151.472 311.238 151.472 313.647C151.472 316.055 153.414 318.007 155.809 318.007Z" fill="#3AD000"/>
<path d="M169.954 318.007C172.35 318.007 174.291 316.055 174.291 313.647C174.291 311.238 172.35 309.286 169.954 309.286C167.559 309.286 165.618 311.238 165.618 313.647C165.618 316.055 167.559 318.007 169.954 318.007Z" fill="#3AD000"/>
<path d="M466.252 472H15.1299C14.1641 472 13.3819 471.655 13.3819 471.23C13.3819 470.806 14.1641 470.46 15.1299 470.46H466.252C467.217 470.46 468 470.805 468 471.23C468 471.656 467.217 472 466.252 472Z" fill="#3F3D56"/>
<path d="M354.795 309.24C355.104 309.381 355.4 309.548 355.682 309.737L383.863 297.642L384.869 290.178L396.13 290.108L395.464 307.229L358.268 317.12C358.19 317.38 358.096 317.635 357.987 317.884C357.449 319.037 356.584 320.006 355.501 320.667C354.418 321.328 353.164 321.653 351.898 321.6C350.632 321.548 349.409 321.12 348.384 320.371C347.359 319.622 346.577 318.585 346.136 317.39C345.695 316.196 345.614 314.897 345.905 313.656C346.196 312.416 346.845 311.29 347.77 310.419C348.695 309.548 349.855 308.972 351.105 308.762C352.355 308.552 353.639 308.718 354.795 309.24Z" fill="#FFB8B8"/>
<path d="M400.225 464.383H392.522L388.857 434.507L400.226 434.507L400.225 464.383Z" fill="#FFB8B8"/>
<path d="M387.019 462.17H401.875V471.575H377.666C377.666 469.081 378.651 466.688 380.405 464.925C382.159 463.161 384.539 462.17 387.019 462.17Z" fill="#2F2E41"/>
<path d="M430.183 462.195L422.517 462.954L415.957 433.583L427.271 432.462L430.183 462.195Z" fill="#FFB8B8"/>
<path d="M416.826 461.294L431.61 459.829L432.527 469.19L408.434 471.576C408.314 470.347 408.435 469.106 408.792 467.924C409.148 466.742 409.733 465.642 410.512 464.687C411.291 463.732 412.25 462.941 413.333 462.359C414.417 461.777 415.603 461.415 416.826 461.294Z" fill="#2F2E41"/>
<path d="M402.369 258.49C410.892 258.49 417.801 251.542 417.801 242.972C417.801 234.402 410.892 227.454 402.369 227.454C393.846 227.454 386.937 234.402 386.937 242.972C386.937 251.542 393.846 258.49 402.369 258.49Z" fill="#FFB8B8"/>
<path d="M390.8 458.341C390.138 458.343 389.497 458.109 388.989 457.682C388.482 457.255 388.141 456.661 388.026 456.005C384.039 433.75 371.007 360.98 370.695 358.964C370.688 358.918 370.685 358.871 370.685 358.824V353.398C370.684 353.201 370.746 353.008 370.86 352.847L372.582 350.423C372.664 350.306 372.771 350.21 372.896 350.141C373.02 350.073 373.159 350.034 373.301 350.028C383.116 349.565 415.262 348.209 416.815 350.16C418.375 352.121 417.824 358.062 417.698 359.233L417.704 359.355L432.146 452.226C432.259 452.966 432.077 453.722 431.641 454.329C431.204 454.936 430.547 455.346 429.812 455.47L420.791 456.964C420.12 457.073 419.431 456.935 418.852 456.576C418.272 456.218 417.84 455.662 417.634 455.01C414.844 446.046 405.489 415.891 402.247 404.222C402.227 404.148 402.18 404.084 402.117 404.042C402.053 404 401.976 403.983 401.901 403.994C401.825 404.004 401.756 404.042 401.706 404.1C401.657 404.159 401.63 404.233 401.631 404.31C401.793 415.433 402.184 443.812 402.319 453.613L402.334 454.669C402.34 455.384 402.079 456.074 401.603 456.605C401.127 457.136 400.47 457.468 399.762 457.535L391.064 458.329C390.976 458.337 390.887 458.341 390.8 458.341Z" fill="#2F2E41"/>
<path d="M392.575 264.591C389.882 266.201 388.27 269.159 387.346 272.17C385.634 277.743 384.603 283.505 384.277 289.329L383.299 306.766L371.201 352.995C381.687 361.916 387.735 359.889 401.851 352.591C415.966 345.294 417.579 355.024 417.579 355.024L420.401 315.69L424.434 272.707C423.529 271.611 422.504 270.621 421.38 269.754C417.652 266.84 413.315 264.814 408.696 263.829C404.077 262.845 399.295 262.928 394.712 264.071L392.575 264.591Z" fill="#3AD000"/>
<path d="M388.645 318.576C388.971 318.699 389.286 318.848 389.588 319.021L417.453 304.997L417.915 297.399L429.41 296.602L430.026 313.921L392.788 326.304C392.484 327.615 391.79 328.803 390.799 329.708C389.807 330.613 388.565 331.193 387.238 331.371C385.911 331.549 384.561 331.317 383.368 330.705C382.175 330.093 381.196 329.13 380.561 327.945C379.925 326.759 379.664 325.408 379.811 324.069C379.958 322.731 380.507 321.469 381.385 320.452C382.262 319.435 383.427 318.711 384.724 318.376C386.021 318.041 387.389 318.111 388.645 318.576Z" fill="#FFB8B8"/>
<path d="M424.232 272.904C431.088 275.337 432.296 301.697 432.296 301.697C424.23 297.237 414.551 304.536 414.551 304.536C414.551 304.536 412.535 297.642 410.115 288.721C409.385 286.212 409.297 283.557 409.861 281.005C410.425 278.452 411.623 276.085 413.341 274.123C413.341 274.123 417.377 270.47 424.232 272.904Z" fill="#6C63FF"/>
<path d="M416.206 247.076C414.284 245.529 411.66 248.34 411.66 248.34L410.122 234.42C410.122 234.42 400.508 235.578 394.355 234.033C388.202 232.489 387.241 239.641 387.241 239.641C386.924 236.752 386.86 233.84 387.049 230.94C387.433 227.46 392.433 223.98 401.277 221.66C410.122 219.339 414.736 229.393 414.736 229.393C420.89 232.486 418.129 248.623 416.206 247.076Z" fill="#2F2E41"/>
</g>
<defs>
<clipPath id="clip0">
<rect width="468" height="472" fill="white"/>
</clipPath>
</defs>
</svg>
